<svg xmlns="http://www.w3.org/2000/svg" viewBox="0 0 128 128" width="500" height="500"><path fill="#98BED8" d="M88.1 100.2L42.4 80.3 63.1 100.2 63.1 110.2 88.1 110.2z"/><path fill="#454B54" d="M88.1,113.2h-25c-1.7,0-3-1.3-3-3s1.3-3,3-3h22v-7c0-1.7,1.3-3,3-3s3,1.3,3,3v10C91.1,111.8,89.8,113.2,88.1,113.2z"/><path fill="#FFF" d="M101.8,80.3c-16.4,16.4-43,16.4-59.4,0s-16.4-43,0-59.4"/><path fill="#FFF" d="M72.1 8.600000000000001A19.5 42 0 1 0 72.1 92.6A19.5 42 0 1 0 72.1 8.600000000000001Z" transform="rotate(-45.001 72.102 50.566)"/><path fill="#98BED8" d="M52.4,30.9C59.2,24,75.6,29.1,90.7,42c-1.5-1.8-3.1-3.5-4.8-5.2C69.5,20.4,50,13.3,42.4,20.9c-7.6,7.6-0.5,27.1,15.9,43.5c1.7,1.7,3.4,3.3,5.2,4.8C50.6,54,45.6,37.7,52.4,30.9z"/><path fill="#454B54" d="M93.3,86.3c-10.6,0-24.8-7.6-37.1-19.8C48,58.2,41.7,49,38.5,40.3c-3.4-9.4-2.8-17,1.7-21.6c2.6-2.6,6.3-3.9,10.7-3.9c10.6,0,24.8,7.6,37.1,19.8c8.2,8.2,14.5,17.5,17.7,26.1c3.4,9.4,2.8,17-1.7,21.6C101.4,85,97.7,86.3,93.3,86.3z M51,20.8c-2.8,0-5,0.7-6.4,2.2c-2.8,2.8-2.9,8.3-0.4,15.3c2.9,7.8,8.6,16.3,16.3,23.9c11,11,23.9,18.1,32.8,18.1c2.8,0,5-0.7,6.4-2.2c2.8-2.8,2.9-8.3,0.4-15.3c-2.9-7.8-8.6-16.3-16.3-23.9C72.8,27.9,59.9,20.8,51,20.8z"/><path fill="#454B54" d="M72.1,95.5c-11.5,0-23-4.4-31.8-13.2c-17.5-17.5-17.5-46.1,0-63.6c1.2-1.2,3.1-1.2,4.2,0c1.2,1.2,1.2,3.1,0,4.2c-15.2,15.2-15.2,39.9,0,55.2c15.2,15.2,39.9,15.2,55.2,0c1.2-1.2,3.1-1.2,4.2,0c1.2,1.2,1.2,3.1,0,4.2C95.1,91.2,83.6,95.5,72.1,95.5z"/><g><path fill="#454B54" d="M58.3,67.4c-0.8,0-1.5-0.3-2.1-0.9c-1.2-1.2-1.2-3.1,0-4.2l12.1-12.1c1.2-1.2,3.1-1.2,4.2,0c1.2,1.2,1.2,3.1,0,4.2L60.4,66.5C59.8,67.1,59.1,67.4,58.3,67.4z"/></g><g><path fill="#454B54" d="M63.1,113.2h-40c-1.1,0-2.1-0.6-2.6-1.6c-0.5-1-0.5-2.1,0.1-3.1l19.3-29.9c0.9-1.4,2.8-1.8,4.1-0.9c1.4,0.9,1.8,2.8,0.9,4.1l-16.3,25.3h31.5v-7c0-1.7,1.3-3,3-3s3,1.3,3,3v10C66.1,111.8,64.8,113.2,63.1,113.2z"/></g></svg>