<svg id="Layer_1" enable-background="new 0 0 512 512" height="512" viewBox="0 0 512 512" width="512" xmlns="http://www.w3.org/2000/svg"><path d="m412 504.5h-282c-7.732 0-14-6.268-14-14v-439c0-7.732 6.268-14 14-14h282c7.732 0 14 6.268 14 14v439c0 7.732-6.268 14-14 14z" fill="#c9c9c9"/><path d="m382 474.5h-282c-7.732 0-14-6.268-14-14v-439c0-7.732 6.268-14 14-14h282c7.732 0 14 6.268 14 14v439c0 7.732-6.268 14-14 14z" fill="#f1f1f1"/><path d="m382 7.5h-30c7.732 0 14 6.268 14 14v439c0 7.732-6.268 14-14 14h30c7.732 0 14-6.268 14-14v-439c0-7.732-6.268-14-14-14z" fill="#dfdfdf"/><path d="m241 210.967s13.104-18.967 39-18.967c23.088 0 39 19.472 39 42.148 0 25.974-21.24 56.656-76.249 83.45-1.101.536-2.402.536-3.503 0-55.008-26.794-76.248-57.476-76.248-83.45 0-22.676 15.912-42.148 39-42.148 25.896 0 39 18.967 39 18.967z" fill="#f44336"/><path d="m426 455.371c4.142 0 7.5-3.358 7.5-7.5v-396.371c0-11.855-9.645-21.5-21.5-21.5h-8.5v-8.5c0-11.855-9.645-21.5-21.5-21.5h-30.131c-4.142 0-7.5 3.358-7.5 7.5s3.358 7.5 7.5 7.5h30.131c3.584 0 6.5 2.916 6.5 6.5v439c0 3.584-2.916 6.5-6.5 6.5h-282c-3.584 0-6.5-2.916-6.5-6.5v-364.256c0-4.142-3.358-7.5-7.5-7.5s-7.5 3.358-7.5 7.5v364.256c0 11.855 9.645 21.5 21.5 21.5h8.5v8.5c0 11.855 9.645 21.5 21.5 21.5h282c11.855 0 21.5-9.645 21.5-21.5v-10.257c0-4.142-3.358-7.5-7.5-7.5s-7.5 3.358-7.5 7.5v10.257c0 3.584-2.916 6.5-6.5 6.5h-282c-3.584 0-6.5-2.916-6.5-6.5v-8.5h258.5c11.855 0 21.5-9.645 21.5-21.5v-415.5h8.5c3.584 0 6.5 2.916 6.5 6.5v396.371c0 4.142 3.358 7.5 7.5 7.5z"/><path d="m86 71.372c4.142 0 7.5-3.358 7.5-7.5v-42.372c0-3.584 2.916-6.5 6.5-6.5h220.055c4.142 0 7.5-3.358 7.5-7.5s-3.358-7.5-7.5-7.5h-220.055c-11.855 0-21.5 9.645-21.5 21.5v42.372c0 4.142 3.358 7.5 7.5 7.5z"/><path d="m235.966 324.342c1.576.767 3.304 1.15 5.033 1.15s3.459-.384 5.036-1.151c30.051-14.637 80.464-45.819 80.464-90.193 0-27.84-20.425-49.648-46.5-49.648-18.978 0-31.977 8.819-39 15.349-7.023-6.529-20.022-15.349-39-15.349-26.075 0-46.5 21.808-46.5 49.648.001 44.374 50.415 75.556 80.467 90.194zm-33.966-124.842c21.364 0 32.338 15.041 32.852 15.762 1.393 1.994 3.681 3.17 6.116 3.186h.046c2.43 0 4.724-1.197 6.131-3.18.457-.644 11.432-15.767 32.855-15.767 17.958 0 31.5 14.896 31.5 34.648 0 15.417-9.202 45.678-70.5 75.956-61.29-30.277-70.5-60.54-70.5-75.956 0-19.753 13.542-34.649 31.5-34.649z"/><path d="m165.648 106.136c3.875-1.462 5.832-5.79 4.369-9.665l-20.996-55.635c-.026-.07-.054-.139-.082-.208-1.36-3.304-4.546-5.437-8.118-5.437h-.01c-3.576.004-6.761 2.146-8.115 5.455-.023.057-.046.113-.067.17l-21.189 55.634c-1.474 3.871.468 8.204 4.339 9.678 3.871 1.476 8.204-.469 9.678-4.339l3.437-9.025h23.69l3.398 9.003c1.474 3.901 5.816 5.823 9.666 4.369zm-31.04-28.372 6.187-16.243 6.13 16.243z"/><path d="m316.331 447.31c3.872 1.473 8.204-.469 9.678-4.339l3.437-9.025h23.69l3.398 9.003c1.134 3.003 3.987 4.854 7.019 4.854.879 0 1.775-.156 2.646-.485 3.875-1.463 5.832-5.79 4.369-9.665l-20.996-55.635c-.026-.069-.053-.137-.081-.205-1.359-3.305-4.545-5.439-8.118-5.439h-.009c-3.577.003-6.763 2.145-8.117 5.455-.023.057-.046.113-.067.17l-21.188 55.633c-1.475 3.871.467 8.204 4.339 9.678zm25.014-44.607 6.13 16.243h-12.316z"/></svg>